<?xml version="1.0" standalone="no"?>
<!DOCTYPE svg PUBLIC "-//W3C//DTD SVG 20010904//EN"
 "http://www.w3.org/TR/2001/REC-SVG-20010904/DTD/svg10.dtd">
<svg version="1.0" xmlns="http://www.w3.org/2000/svg"
 width="260.000000pt" height="260.000000pt" viewBox="0 0 260.000000 260.000000"
 preserveAspectRatio="xMidYMid meet">
<metadata>
Created by potrace 1.11, written by Peter Selinger 2001-2013
</metadata>
<g transform="translate(0.000000,260.000000) scale(0.100000,-0.100000)"
fill="#000000" stroke="none">
<path d="M355 1298 l0 -853 950 -3 950 -2 0 665 0 665 -471 0 c-369 0 -473 3
-476 13 -2 6 -3 92 -3 190 l1 177 -476 0 -475 0 0 -852z m380 574 c0 -45 -2
-87 -5 -93 -4 -6 -43 -9 -96 -7 l-88 3 -1 80 c0 44 1 86 4 93 3 10 26 12 94
10 l91 -3 1 -83z m376 80 c5 -27 3 -165 -2 -173 -3 -6 -43 -9 -95 -7 l-89 3 0
85 c-1 47 1 88 3 92 4 10 182 9 183 0z m-376 -457 c1 -44 -1 -86 -3 -92 -3 -9
-31 -13 -93 -13 -85 0 -89 1 -90 23 -4 74 -4 144 -1 155 3 9 28 12 96 10 l91
-3 0 -80z m380 -10 l0 -90 -93 -3 c-69 -2 -92 0 -93 10 -4 45 -4 164 -1 171 2
4 45 6 95 5 l92 -3 0 -90z m950 -365 c0 -250 -1 -463 -3 -472 -4 -17 -30 -18
-381 -18 l-376 0 1 93 0 92 95 5 94 5 1 92 0 92 -95 3 -96 3 0 90 0 90 95 5
95 5 1 93 0 92 -92 0 c-65 0 -93 4 -96 13 -3 11 -3 90 1 155 l1 22 377 -2 378
-3 0 -455z m-1334 73 c5 -48 4 -165 -1 -173 -4 -7 -41 -10 -96 -8 l-89 3 0 80
c-1 44 1 86 3 93 5 13 181 18 183 5z m381 -5 c2 -7 3 -49 3 -93 l0 -80 -92 -3
c-51 -1 -93 1 -94 5 -3 28 -4 160 -1 171 6 17 178 17 184 0z m-377 -456 c0
-46 -3 -88 -6 -93 -3 -6 -45 -9 -94 -7 l-89 3 0 93 -1 93 95 -3 95 -3 0 -83z
m377 76 c2 -7 4 -49 3 -93 l0 -80 -93 -3 c-69 -2 -92 0 -93 10 -3 39 -4 164
-1 171 6 13 179 8 184 -5z"/>
<path d="M1685 1298 l0 -93 95 0 95 0 0 93 0 92 -95 0 -96 0 1 -92z"/>
<path d="M1684 915 l1 -95 95 0 95 0 0 95 1 95 -96 0 -96 0 0 -95z"/>
</g>
</svg>
